G04 (created by PCBNEW (2013-jul-07)-stable) date Mon 10 Oct 2016 08:48:14 PM CEST*
%MOIN*%
G04 Gerber Fmt 3.4, Leading zero omitted, Abs format*
%FSLAX34Y34*%
G01*
G70*
G90*
G04 APERTURE LIST*
%ADD10C,0.00590551*%
%ADD11R,0.0787402X0.0590551*%
%ADD12R,0.0590551X0.0787402*%
%ADD13C,0.0629921*%
%ADD14C,0.02*%
%ADD15C,0.01*%
G04 APERTURE END LIST*
G54D10*
G54D11*
X34878Y-29917D03*
X34878Y-28932D03*
X34878Y-28046D03*
X34878Y-26964D03*
X34878Y-25980D03*
X34878Y-24798D03*
X34878Y-22042D03*
X34878Y-21058D03*
X34878Y-23027D03*
X42161Y-21058D03*
X42161Y-22042D03*
X42161Y-23027D03*
X42161Y-25783D03*
X42161Y-26570D03*
X42161Y-27554D03*
X42161Y-28342D03*
X42161Y-29326D03*
X42161Y-30310D03*
G54D12*
X43580Y-17400D03*
X42793Y-17400D03*
X42005Y-17400D03*
X41218Y-17400D03*
X40431Y-17400D03*
X39643Y-17400D03*
X38856Y-17400D03*
X38068Y-17400D03*
X37281Y-17400D03*
X36494Y-17400D03*
X37281Y-30825D03*
G54D13*
X39643Y-22093D03*
X37150Y-28350D03*
X37250Y-29900D03*
X38200Y-24550D03*
X38550Y-27100D03*
X39100Y-26050D03*
X42750Y-19150D03*
X42750Y-18300D03*
X40700Y-28600D03*
X41950Y-18200D03*
X37150Y-26250D03*
X37300Y-24900D03*
G54D14*
X39643Y-21500D02*
X39643Y-22093D01*
X34720Y-26964D02*
X35864Y-26964D01*
X37150Y-28250D02*
X37150Y-28350D01*
X35864Y-26964D02*
X37150Y-28250D01*
X37281Y-29931D02*
X37281Y-30825D01*
X37250Y-29900D02*
X37281Y-29931D01*
X39643Y-17400D02*
X39643Y-21500D01*
X39643Y-21500D02*
X39643Y-28593D01*
X40376Y-29326D02*
X42319Y-29326D01*
X39643Y-28593D02*
X40376Y-29326D01*
X34720Y-28046D02*
X35846Y-28046D01*
X38068Y-24418D02*
X38068Y-17400D01*
X38200Y-24550D02*
X38068Y-24418D01*
X38550Y-28250D02*
X38550Y-27100D01*
X37850Y-28950D02*
X38550Y-28250D01*
X36750Y-28950D02*
X37850Y-28950D01*
X35846Y-28046D02*
X36750Y-28950D01*
X43580Y-17400D02*
X43580Y-18319D01*
X39100Y-26050D02*
X39100Y-28750D01*
X39100Y-28750D02*
X40660Y-30310D01*
X40660Y-30310D02*
X42319Y-30310D01*
X43580Y-18319D02*
X42750Y-19150D01*
X42793Y-17400D02*
X42793Y-18256D01*
X42793Y-18256D02*
X42750Y-18300D01*
X34720Y-25980D02*
X35830Y-25980D01*
X38800Y-17456D02*
X38856Y-17400D01*
X38800Y-24750D02*
X38800Y-17456D01*
X38000Y-25550D02*
X38800Y-24750D01*
X38000Y-26300D02*
X38000Y-25550D01*
X37500Y-26800D02*
X38000Y-26300D01*
X36650Y-26800D02*
X37500Y-26800D01*
X35830Y-25980D02*
X36650Y-26800D01*
X40431Y-17400D02*
X40431Y-28331D01*
X40431Y-28331D02*
X40700Y-28600D01*
X41218Y-17400D02*
X41218Y-28018D01*
X41542Y-28342D02*
X42319Y-28342D01*
X41218Y-28018D02*
X41542Y-28342D01*
X42005Y-18094D02*
X42005Y-18144D01*
X42005Y-18144D02*
X41950Y-18200D01*
X42005Y-17400D02*
X42005Y-18094D01*
X42005Y-18094D02*
X42000Y-18100D01*
X36494Y-25594D02*
X36494Y-17400D01*
X37150Y-26250D02*
X36494Y-25594D01*
X37281Y-24500D02*
X37281Y-24881D01*
X37281Y-24881D02*
X37300Y-24900D01*
X37281Y-17400D02*
X37281Y-24500D01*
X37281Y-24500D02*
X37281Y-24531D01*
G54D10*
G36*
X42130Y-29384D02*
X42111Y-29384D01*
X42111Y-29376D01*
X41618Y-29376D01*
X41568Y-29426D01*
X41567Y-29582D01*
X41568Y-29661D01*
X41598Y-29735D01*
X41654Y-29791D01*
X41720Y-29818D01*
X41654Y-29845D01*
X41598Y-29901D01*
X41568Y-29975D01*
X41568Y-30010D01*
X40784Y-30010D01*
X39400Y-28625D01*
X39400Y-26478D01*
X39536Y-26342D01*
X39614Y-26152D01*
X39615Y-25948D01*
X39536Y-25758D01*
X39392Y-25613D01*
X39202Y-25535D01*
X38998Y-25534D01*
X38808Y-25613D01*
X38663Y-25757D01*
X38585Y-25947D01*
X38584Y-26151D01*
X38663Y-26341D01*
X38800Y-26478D01*
X38800Y-26646D01*
X38652Y-26585D01*
X38448Y-26584D01*
X38258Y-26663D01*
X38113Y-26807D01*
X38035Y-26997D01*
X38034Y-27201D01*
X38113Y-27391D01*
X38250Y-27528D01*
X38250Y-28125D01*
X37725Y-28650D01*
X36874Y-28650D01*
X36059Y-27834D01*
X35961Y-27769D01*
X35846Y-27746D01*
X35472Y-27746D01*
X35472Y-27712D01*
X35441Y-27638D01*
X35385Y-27582D01*
X35311Y-27551D01*
X35232Y-27551D01*
X34919Y-27551D01*
X34919Y-27459D01*
X34928Y-27459D01*
X34928Y-27409D01*
X34978Y-27459D01*
X35311Y-27459D01*
X35385Y-27429D01*
X35441Y-27372D01*
X35471Y-27299D01*
X35472Y-27219D01*
X35471Y-27064D01*
X35421Y-27014D01*
X34928Y-27014D01*
X34928Y-27022D01*
X34919Y-27022D01*
X34919Y-26906D01*
X34928Y-26906D01*
X34928Y-26914D01*
X35421Y-26914D01*
X35471Y-26864D01*
X35472Y-26708D01*
X35471Y-26629D01*
X35441Y-26555D01*
X35385Y-26499D01*
X35319Y-26472D01*
X35385Y-26444D01*
X35441Y-26388D01*
X35471Y-26315D01*
X35471Y-26280D01*
X35705Y-26280D01*
X36437Y-27012D01*
X36535Y-27077D01*
X36535Y-27077D01*
X36650Y-27100D01*
X37500Y-27100D01*
X37500Y-27099D01*
X37614Y-27077D01*
X37614Y-27077D01*
X37712Y-27012D01*
X38212Y-26512D01*
X38212Y-26512D01*
X38277Y-26414D01*
X38299Y-26300D01*
X38300Y-26300D01*
X38300Y-25674D01*
X39012Y-24962D01*
X39012Y-24962D01*
X39077Y-24864D01*
X39099Y-24750D01*
X39100Y-24750D01*
X39100Y-17993D01*
X39191Y-17993D01*
X39250Y-17969D01*
X39308Y-17993D01*
X39388Y-17993D01*
X39543Y-17993D01*
X39593Y-17943D01*
X39593Y-17450D01*
X39585Y-17450D01*
X39585Y-17350D01*
X39593Y-17350D01*
X39593Y-17342D01*
X39693Y-17342D01*
X39693Y-17350D01*
X39701Y-17350D01*
X39701Y-17450D01*
X39693Y-17450D01*
X39693Y-17943D01*
X39743Y-17993D01*
X39899Y-17993D01*
X39978Y-17993D01*
X40037Y-17969D01*
X40095Y-17993D01*
X40131Y-17993D01*
X40131Y-28331D01*
X40153Y-28445D01*
X40186Y-28494D01*
X40185Y-28497D01*
X40184Y-28701D01*
X40263Y-28891D01*
X40407Y-29036D01*
X40597Y-29114D01*
X40801Y-29115D01*
X40991Y-29036D01*
X41136Y-28892D01*
X41214Y-28702D01*
X41215Y-28498D01*
X41173Y-28397D01*
X41330Y-28554D01*
X41330Y-28554D01*
X41427Y-28619D01*
X41542Y-28642D01*
X41567Y-28642D01*
X41567Y-28677D01*
X41598Y-28750D01*
X41654Y-28806D01*
X41720Y-28834D01*
X41654Y-28861D01*
X41598Y-28917D01*
X41568Y-28991D01*
X41567Y-29070D01*
X41568Y-29226D01*
X41618Y-29276D01*
X42111Y-29276D01*
X42111Y-29268D01*
X42130Y-29268D01*
X42130Y-29384D01*
X42130Y-29384D01*
G37*
G54D15*
X42130Y-29384D02*
X42111Y-29384D01*
X42111Y-29376D01*
X41618Y-29376D01*
X41568Y-29426D01*
X41567Y-29582D01*
X41568Y-29661D01*
X41598Y-29735D01*
X41654Y-29791D01*
X41720Y-29818D01*
X41654Y-29845D01*
X41598Y-29901D01*
X41568Y-29975D01*
X41568Y-30010D01*
X40784Y-30010D01*
X39400Y-28625D01*
X39400Y-26478D01*
X39536Y-26342D01*
X39614Y-26152D01*
X39615Y-25948D01*
X39536Y-25758D01*
X39392Y-25613D01*
X39202Y-25535D01*
X38998Y-25534D01*
X38808Y-25613D01*
X38663Y-25757D01*
X38585Y-25947D01*
X38584Y-26151D01*
X38663Y-26341D01*
X38800Y-26478D01*
X38800Y-26646D01*
X38652Y-26585D01*
X38448Y-26584D01*
X38258Y-26663D01*
X38113Y-26807D01*
X38035Y-26997D01*
X38034Y-27201D01*
X38113Y-27391D01*
X38250Y-27528D01*
X38250Y-28125D01*
X37725Y-28650D01*
X36874Y-28650D01*
X36059Y-27834D01*
X35961Y-27769D01*
X35846Y-27746D01*
X35472Y-27746D01*
X35472Y-27712D01*
X35441Y-27638D01*
X35385Y-27582D01*
X35311Y-27551D01*
X35232Y-27551D01*
X34919Y-27551D01*
X34919Y-27459D01*
X34928Y-27459D01*
X34928Y-27409D01*
X34978Y-27459D01*
X35311Y-27459D01*
X35385Y-27429D01*
X35441Y-27372D01*
X35471Y-27299D01*
X35472Y-27219D01*
X35471Y-27064D01*
X35421Y-27014D01*
X34928Y-27014D01*
X34928Y-27022D01*
X34919Y-27022D01*
X34919Y-26906D01*
X34928Y-26906D01*
X34928Y-26914D01*
X35421Y-26914D01*
X35471Y-26864D01*
X35472Y-26708D01*
X35471Y-26629D01*
X35441Y-26555D01*
X35385Y-26499D01*
X35319Y-26472D01*
X35385Y-26444D01*
X35441Y-26388D01*
X35471Y-26315D01*
X35471Y-26280D01*
X35705Y-26280D01*
X36437Y-27012D01*
X36535Y-27077D01*
X36535Y-27077D01*
X36650Y-27100D01*
X37500Y-27100D01*
X37500Y-27099D01*
X37614Y-27077D01*
X37614Y-27077D01*
X37712Y-27012D01*
X38212Y-26512D01*
X38212Y-26512D01*
X38277Y-26414D01*
X38299Y-26300D01*
X38300Y-26300D01*
X38300Y-25674D01*
X39012Y-24962D01*
X39012Y-24962D01*
X39077Y-24864D01*
X39099Y-24750D01*
X39100Y-24750D01*
X39100Y-17993D01*
X39191Y-17993D01*
X39250Y-17969D01*
X39308Y-17993D01*
X39388Y-17993D01*
X39543Y-17993D01*
X39593Y-17943D01*
X39593Y-17450D01*
X39585Y-17450D01*
X39585Y-17350D01*
X39593Y-17350D01*
X39593Y-17342D01*
X39693Y-17342D01*
X39693Y-17350D01*
X39701Y-17350D01*
X39701Y-17450D01*
X39693Y-17450D01*
X39693Y-17943D01*
X39743Y-17993D01*
X39899Y-17993D01*
X39978Y-17993D01*
X40037Y-17969D01*
X40095Y-17993D01*
X40131Y-17993D01*
X40131Y-28331D01*
X40153Y-28445D01*
X40186Y-28494D01*
X40185Y-28497D01*
X40184Y-28701D01*
X40263Y-28891D01*
X40407Y-29036D01*
X40597Y-29114D01*
X40801Y-29115D01*
X40991Y-29036D01*
X41136Y-28892D01*
X41214Y-28702D01*
X41215Y-28498D01*
X41173Y-28397D01*
X41330Y-28554D01*
X41330Y-28554D01*
X41427Y-28619D01*
X41542Y-28642D01*
X41567Y-28642D01*
X41567Y-28677D01*
X41598Y-28750D01*
X41654Y-28806D01*
X41720Y-28834D01*
X41654Y-28861D01*
X41598Y-28917D01*
X41568Y-28991D01*
X41567Y-29070D01*
X41568Y-29226D01*
X41618Y-29276D01*
X42111Y-29276D01*
X42111Y-29268D01*
X42130Y-29268D01*
X42130Y-29384D01*
G54D10*
G36*
X42130Y-31080D02*
X37776Y-31080D01*
X37776Y-30391D01*
X37746Y-30318D01*
X37690Y-30262D01*
X37616Y-30231D01*
X37537Y-30231D01*
X37381Y-30231D01*
X37331Y-30281D01*
X37331Y-30775D01*
X37726Y-30775D01*
X37776Y-30725D01*
X37776Y-30391D01*
X37776Y-31080D01*
X37776Y-31080D01*
X37776Y-30925D01*
X37726Y-30875D01*
X37331Y-30875D01*
X37331Y-30883D01*
X37231Y-30883D01*
X37231Y-30875D01*
X37231Y-30775D01*
X37231Y-30281D01*
X37181Y-30231D01*
X37025Y-30231D01*
X36946Y-30231D01*
X36872Y-30262D01*
X36816Y-30318D01*
X36786Y-30391D01*
X36786Y-30725D01*
X36836Y-30775D01*
X37231Y-30775D01*
X37231Y-30875D01*
X36836Y-30875D01*
X36786Y-30925D01*
X36786Y-31080D01*
X34919Y-31080D01*
X34919Y-30412D01*
X35311Y-30412D01*
X35385Y-30381D01*
X35441Y-30325D01*
X35471Y-30252D01*
X35472Y-30172D01*
X35472Y-29582D01*
X35441Y-29508D01*
X35385Y-29452D01*
X35319Y-29424D01*
X35385Y-29397D01*
X35441Y-29341D01*
X35471Y-29267D01*
X35472Y-29188D01*
X35472Y-28597D01*
X35441Y-28524D01*
X35407Y-28489D01*
X35441Y-28455D01*
X35471Y-28382D01*
X35471Y-28346D01*
X35722Y-28346D01*
X36537Y-29162D01*
X36635Y-29227D01*
X36750Y-29250D01*
X37850Y-29250D01*
X37850Y-29249D01*
X37964Y-29227D01*
X37964Y-29227D01*
X38062Y-29162D01*
X38762Y-28462D01*
X38762Y-28462D01*
X38800Y-28405D01*
X38800Y-28750D01*
X38822Y-28864D01*
X38887Y-28962D01*
X40448Y-30522D01*
X40448Y-30522D01*
X40545Y-30587D01*
X40660Y-30610D01*
X41567Y-30610D01*
X41567Y-30645D01*
X41598Y-30719D01*
X41654Y-30775D01*
X41728Y-30805D01*
X41807Y-30806D01*
X42130Y-30806D01*
X42130Y-31000D01*
X42130Y-31080D01*
X42130Y-31080D01*
G37*
G54D15*
X42130Y-31080D02*
X37776Y-31080D01*
X37776Y-30391D01*
X37746Y-30318D01*
X37690Y-30262D01*
X37616Y-30231D01*
X37537Y-30231D01*
X37381Y-30231D01*
X37331Y-30281D01*
X37331Y-30775D01*
X37726Y-30775D01*
X37776Y-30725D01*
X37776Y-30391D01*
X37776Y-31080D01*
X37776Y-31080D01*
X37776Y-30925D01*
X37726Y-30875D01*
X37331Y-30875D01*
X37331Y-30883D01*
X37231Y-30883D01*
X37231Y-30875D01*
X37231Y-30775D01*
X37231Y-30281D01*
X37181Y-30231D01*
X37025Y-30231D01*
X36946Y-30231D01*
X36872Y-30262D01*
X36816Y-30318D01*
X36786Y-30391D01*
X36786Y-30725D01*
X36836Y-30775D01*
X37231Y-30775D01*
X37231Y-30875D01*
X36836Y-30875D01*
X36786Y-30925D01*
X36786Y-31080D01*
X34919Y-31080D01*
X34919Y-30412D01*
X35311Y-30412D01*
X35385Y-30381D01*
X35441Y-30325D01*
X35471Y-30252D01*
X35472Y-30172D01*
X35472Y-29582D01*
X35441Y-29508D01*
X35385Y-29452D01*
X35319Y-29424D01*
X35385Y-29397D01*
X35441Y-29341D01*
X35471Y-29267D01*
X35472Y-29188D01*
X35472Y-28597D01*
X35441Y-28524D01*
X35407Y-28489D01*
X35441Y-28455D01*
X35471Y-28382D01*
X35471Y-28346D01*
X35722Y-28346D01*
X36537Y-29162D01*
X36635Y-29227D01*
X36750Y-29250D01*
X37850Y-29250D01*
X37850Y-29249D01*
X37964Y-29227D01*
X37964Y-29227D01*
X38062Y-29162D01*
X38762Y-28462D01*
X38762Y-28462D01*
X38800Y-28405D01*
X38800Y-28750D01*
X38822Y-28864D01*
X38887Y-28962D01*
X40448Y-30522D01*
X40448Y-30522D01*
X40545Y-30587D01*
X40660Y-30610D01*
X41567Y-30610D01*
X41567Y-30645D01*
X41598Y-30719D01*
X41654Y-30775D01*
X41728Y-30805D01*
X41807Y-30806D01*
X42130Y-30806D01*
X42130Y-31000D01*
X42130Y-31080D01*
M02*
