M48
INCH,TZ
T1C0.031
T2C0.047
%
G90
G05
T1
X37150Y-26250
X37150Y-28350
X37250Y-29900
X37300Y-24900
X38200Y-24550
X38550Y-27100
X39100Y-26050
X39644Y-22094
X40700Y-28600
X41950Y-18200
X42750Y-18300
X42750Y-19150
T2
X34721Y-21059
X34721Y-22043
X34721Y-23027
X34721Y-24799
X34721Y-25980
X34721Y-26964
X34721Y-28047
X34721Y-28933
X34721Y-29917
X42319Y-21059
X42319Y-22043
X42319Y-23027
X42319Y-25783
X42319Y-26571
X42319Y-27555
X42319Y-28342
X42319Y-29326
X42319Y-30311
T0
M30
