G04 (created by PCBNEW (2013-jul-07)-stable) date Mon 10 Oct 2016 08:48:14 PM CEST*
%MOIN*%
G04 Gerber Fmt 3.4, Leading zero omitted, Abs format*
%FSLAX34Y34*%
G01*
G70*
G90*
G04 APERTURE LIST*
%ADD10C,0.00590551*%
%ADD11R,0.0787402X0.0590551*%
%ADD12C,0.0629921*%
%ADD13C,0.02*%
%ADD14C,0.01*%
G04 APERTURE END LIST*
G54D10*
G54D11*
X34878Y-29917D03*
X34878Y-28932D03*
X34878Y-28046D03*
X34878Y-26964D03*
X34878Y-25980D03*
X34878Y-24798D03*
X34878Y-22042D03*
X34878Y-21058D03*
X34878Y-23027D03*
X42161Y-21058D03*
X42161Y-22042D03*
X42161Y-23027D03*
X42161Y-25783D03*
X42161Y-26570D03*
X42161Y-27554D03*
X42161Y-28342D03*
X42161Y-29326D03*
X42161Y-30310D03*
G54D12*
X39643Y-22093D03*
X37150Y-28350D03*
X37250Y-29900D03*
X38200Y-24550D03*
X38550Y-27100D03*
X39100Y-26050D03*
X42750Y-19150D03*
X42750Y-18300D03*
X40700Y-28600D03*
X41950Y-18200D03*
X37150Y-26250D03*
X37300Y-24900D03*
G54D13*
X39650Y-22150D02*
X39600Y-22200D01*
X39650Y-22100D02*
X39650Y-22150D01*
X39643Y-22093D02*
X39650Y-22100D01*
X42319Y-29326D02*
X37823Y-29326D01*
X37823Y-29326D02*
X37250Y-29900D01*
X37250Y-29600D02*
X37250Y-29900D01*
X37250Y-28450D02*
X37250Y-29600D01*
X37150Y-28350D02*
X37250Y-28450D01*
X38200Y-26750D02*
X38200Y-24550D01*
X38550Y-27100D02*
X38200Y-26750D01*
X39100Y-24550D02*
X39100Y-26050D01*
X38450Y-23900D02*
X39100Y-24550D01*
X37250Y-23900D02*
X38450Y-23900D01*
X37000Y-23650D02*
X37250Y-23900D01*
X37000Y-21100D02*
X37000Y-23650D01*
X38000Y-20100D02*
X37000Y-21100D01*
X41800Y-20100D02*
X38000Y-20100D01*
X42750Y-19150D02*
X41800Y-20100D01*
X35932Y-29917D02*
X34720Y-29917D01*
X36450Y-29400D02*
X35932Y-29917D01*
X36450Y-20950D02*
X36450Y-29400D01*
X37750Y-19650D02*
X36450Y-20950D01*
X41400Y-19650D02*
X37750Y-19650D01*
X42750Y-18300D02*
X41400Y-19650D01*
X40895Y-27554D02*
X42319Y-27554D01*
X40700Y-27750D02*
X40895Y-27554D01*
X40700Y-28600D02*
X40700Y-27750D01*
X41950Y-18200D02*
X41925Y-18175D01*
X41925Y-18175D02*
X41950Y-18200D01*
X41950Y-18200D02*
X41950Y-18150D01*
X35567Y-28932D02*
X34720Y-28932D01*
X35950Y-28550D02*
X35567Y-28932D01*
X35950Y-20650D02*
X35950Y-28550D01*
X37400Y-19200D02*
X35950Y-20650D01*
X40900Y-19200D02*
X37400Y-19200D01*
X42000Y-18100D02*
X41950Y-18150D01*
X41950Y-18150D02*
X40900Y-19200D01*
X42319Y-26570D02*
X40979Y-26570D01*
X37300Y-26400D02*
X37150Y-26250D01*
X37300Y-27650D02*
X37300Y-26400D01*
X37800Y-28150D02*
X37300Y-27650D01*
X39400Y-28150D02*
X37800Y-28150D01*
X40979Y-26570D02*
X39400Y-28150D01*
X37300Y-24900D02*
X37800Y-25400D01*
X37800Y-25400D02*
X37800Y-27450D01*
X37800Y-27450D02*
X38050Y-27700D01*
X38050Y-27700D02*
X39250Y-27700D01*
X39250Y-27700D02*
X41166Y-25783D01*
X41166Y-25783D02*
X42319Y-25783D01*
G54D10*
G36*
X42130Y-31080D02*
X34919Y-31080D01*
X34919Y-30412D01*
X35311Y-30412D01*
X35385Y-30381D01*
X35441Y-30325D01*
X35471Y-30252D01*
X35471Y-30217D01*
X35932Y-30217D01*
X35932Y-30217D01*
X36047Y-30194D01*
X36047Y-30194D01*
X36145Y-30129D01*
X36662Y-29612D01*
X36662Y-29612D01*
X36727Y-29514D01*
X36749Y-29400D01*
X36750Y-29400D01*
X36750Y-26578D01*
X36857Y-26686D01*
X37000Y-26745D01*
X37000Y-27650D01*
X37022Y-27764D01*
X37087Y-27862D01*
X37587Y-28362D01*
X37587Y-28362D01*
X37685Y-28427D01*
X37800Y-28450D01*
X39400Y-28450D01*
X39400Y-28449D01*
X39514Y-28427D01*
X39514Y-28427D01*
X39612Y-28362D01*
X41103Y-26870D01*
X41567Y-26870D01*
X41567Y-26905D01*
X41598Y-26978D01*
X41654Y-27035D01*
X41720Y-27062D01*
X41654Y-27089D01*
X41598Y-27146D01*
X41568Y-27219D01*
X41568Y-27254D01*
X40895Y-27254D01*
X40780Y-27277D01*
X40683Y-27342D01*
X40487Y-27537D01*
X40422Y-27635D01*
X40400Y-27750D01*
X40400Y-28171D01*
X40263Y-28307D01*
X40185Y-28497D01*
X40184Y-28701D01*
X40263Y-28891D01*
X40407Y-29036D01*
X40597Y-29114D01*
X40801Y-29115D01*
X40991Y-29036D01*
X41136Y-28892D01*
X41214Y-28702D01*
X41215Y-28498D01*
X41136Y-28308D01*
X41000Y-28171D01*
X41000Y-27874D01*
X41019Y-27854D01*
X41567Y-27854D01*
X41567Y-27889D01*
X41592Y-27948D01*
X41568Y-28006D01*
X41567Y-28086D01*
X41567Y-28677D01*
X41598Y-28750D01*
X41654Y-28806D01*
X41720Y-28834D01*
X41654Y-28861D01*
X41598Y-28917D01*
X41568Y-28991D01*
X41567Y-29070D01*
X41568Y-29226D01*
X41618Y-29276D01*
X42111Y-29276D01*
X42111Y-29268D01*
X42130Y-29268D01*
X42130Y-29384D01*
X42111Y-29384D01*
X42111Y-29376D01*
X41618Y-29376D01*
X41568Y-29426D01*
X41567Y-29582D01*
X41568Y-29661D01*
X41598Y-29735D01*
X41654Y-29791D01*
X41720Y-29818D01*
X41654Y-29845D01*
X41598Y-29901D01*
X41568Y-29975D01*
X41567Y-30055D01*
X41567Y-30645D01*
X41598Y-30719D01*
X41654Y-30775D01*
X41728Y-30805D01*
X41807Y-30806D01*
X42130Y-30806D01*
X42130Y-31000D01*
X42130Y-31080D01*
X42130Y-31080D01*
G37*
G54D14*
X42130Y-31080D02*
X34919Y-31080D01*
X34919Y-30412D01*
X35311Y-30412D01*
X35385Y-30381D01*
X35441Y-30325D01*
X35471Y-30252D01*
X35471Y-30217D01*
X35932Y-30217D01*
X35932Y-30217D01*
X36047Y-30194D01*
X36047Y-30194D01*
X36145Y-30129D01*
X36662Y-29612D01*
X36662Y-29612D01*
X36727Y-29514D01*
X36749Y-29400D01*
X36750Y-29400D01*
X36750Y-26578D01*
X36857Y-26686D01*
X37000Y-26745D01*
X37000Y-27650D01*
X37022Y-27764D01*
X37087Y-27862D01*
X37587Y-28362D01*
X37587Y-28362D01*
X37685Y-28427D01*
X37800Y-28450D01*
X39400Y-28450D01*
X39400Y-28449D01*
X39514Y-28427D01*
X39514Y-28427D01*
X39612Y-28362D01*
X41103Y-26870D01*
X41567Y-26870D01*
X41567Y-26905D01*
X41598Y-26978D01*
X41654Y-27035D01*
X41720Y-27062D01*
X41654Y-27089D01*
X41598Y-27146D01*
X41568Y-27219D01*
X41568Y-27254D01*
X40895Y-27254D01*
X40780Y-27277D01*
X40683Y-27342D01*
X40487Y-27537D01*
X40422Y-27635D01*
X40400Y-27750D01*
X40400Y-28171D01*
X40263Y-28307D01*
X40185Y-28497D01*
X40184Y-28701D01*
X40263Y-28891D01*
X40407Y-29036D01*
X40597Y-29114D01*
X40801Y-29115D01*
X40991Y-29036D01*
X41136Y-28892D01*
X41214Y-28702D01*
X41215Y-28498D01*
X41136Y-28308D01*
X41000Y-28171D01*
X41000Y-27874D01*
X41019Y-27854D01*
X41567Y-27854D01*
X41567Y-27889D01*
X41592Y-27948D01*
X41568Y-28006D01*
X41567Y-28086D01*
X41567Y-28677D01*
X41598Y-28750D01*
X41654Y-28806D01*
X41720Y-28834D01*
X41654Y-28861D01*
X41598Y-28917D01*
X41568Y-28991D01*
X41567Y-29070D01*
X41568Y-29226D01*
X41618Y-29276D01*
X42111Y-29276D01*
X42111Y-29268D01*
X42130Y-29268D01*
X42130Y-29384D01*
X42111Y-29384D01*
X42111Y-29376D01*
X41618Y-29376D01*
X41568Y-29426D01*
X41567Y-29582D01*
X41568Y-29661D01*
X41598Y-29735D01*
X41654Y-29791D01*
X41720Y-29818D01*
X41654Y-29845D01*
X41598Y-29901D01*
X41568Y-29975D01*
X41567Y-30055D01*
X41567Y-30645D01*
X41598Y-30719D01*
X41654Y-30775D01*
X41728Y-30805D01*
X41807Y-30806D01*
X42130Y-30806D01*
X42130Y-31000D01*
X42130Y-31080D01*
G54D10*
G36*
X42889Y-19649D02*
X42194Y-20344D01*
X42147Y-20415D01*
X42130Y-20500D01*
X42130Y-20500D01*
X42130Y-20563D01*
X41728Y-20563D01*
X41654Y-20593D01*
X41598Y-20650D01*
X41568Y-20723D01*
X41567Y-20803D01*
X41567Y-21393D01*
X41598Y-21467D01*
X41654Y-21523D01*
X41720Y-21550D01*
X41654Y-21578D01*
X41598Y-21634D01*
X41568Y-21707D01*
X41567Y-21787D01*
X41567Y-22377D01*
X41598Y-22451D01*
X41654Y-22507D01*
X41720Y-22535D01*
X41654Y-22562D01*
X41598Y-22618D01*
X41568Y-22692D01*
X41567Y-22771D01*
X41567Y-23362D01*
X41598Y-23435D01*
X41654Y-23491D01*
X41728Y-23522D01*
X41807Y-23522D01*
X42130Y-23522D01*
X42130Y-25287D01*
X41728Y-25287D01*
X41654Y-25318D01*
X41598Y-25374D01*
X41568Y-25447D01*
X41568Y-25483D01*
X41166Y-25483D01*
X41052Y-25505D01*
X40954Y-25571D01*
X39125Y-27400D01*
X38978Y-27400D01*
X38986Y-27392D01*
X39064Y-27202D01*
X39065Y-26998D01*
X38986Y-26808D01*
X38842Y-26663D01*
X38652Y-26585D01*
X38500Y-26584D01*
X38500Y-24978D01*
X38636Y-24842D01*
X38714Y-24652D01*
X38714Y-24589D01*
X38800Y-24674D01*
X38800Y-25621D01*
X38663Y-25757D01*
X38585Y-25947D01*
X38584Y-26151D01*
X38663Y-26341D01*
X38807Y-26486D01*
X38997Y-26564D01*
X39201Y-26565D01*
X39391Y-26486D01*
X39536Y-26342D01*
X39614Y-26152D01*
X39615Y-25948D01*
X39536Y-25758D01*
X39400Y-25621D01*
X39400Y-24550D01*
X39377Y-24435D01*
X39312Y-24337D01*
X39312Y-24337D01*
X38662Y-23687D01*
X38564Y-23622D01*
X38450Y-23600D01*
X37374Y-23600D01*
X37300Y-23525D01*
X37300Y-21224D01*
X38124Y-20400D01*
X41800Y-20400D01*
X41800Y-20399D01*
X41914Y-20377D01*
X41914Y-20377D01*
X42012Y-20312D01*
X42659Y-19664D01*
X42851Y-19665D01*
X42889Y-19649D01*
X42889Y-19649D01*
G37*
G54D14*
X42889Y-19649D02*
X42194Y-20344D01*
X42147Y-20415D01*
X42130Y-20500D01*
X42130Y-20500D01*
X42130Y-20563D01*
X41728Y-20563D01*
X41654Y-20593D01*
X41598Y-20650D01*
X41568Y-20723D01*
X41567Y-20803D01*
X41567Y-21393D01*
X41598Y-21467D01*
X41654Y-21523D01*
X41720Y-21550D01*
X41654Y-21578D01*
X41598Y-21634D01*
X41568Y-21707D01*
X41567Y-21787D01*
X41567Y-22377D01*
X41598Y-22451D01*
X41654Y-22507D01*
X41720Y-22535D01*
X41654Y-22562D01*
X41598Y-22618D01*
X41568Y-22692D01*
X41567Y-22771D01*
X41567Y-23362D01*
X41598Y-23435D01*
X41654Y-23491D01*
X41728Y-23522D01*
X41807Y-23522D01*
X42130Y-23522D01*
X42130Y-25287D01*
X41728Y-25287D01*
X41654Y-25318D01*
X41598Y-25374D01*
X41568Y-25447D01*
X41568Y-25483D01*
X41166Y-25483D01*
X41052Y-25505D01*
X40954Y-25571D01*
X39125Y-27400D01*
X38978Y-27400D01*
X38986Y-27392D01*
X39064Y-27202D01*
X39065Y-26998D01*
X38986Y-26808D01*
X38842Y-26663D01*
X38652Y-26585D01*
X38500Y-26584D01*
X38500Y-24978D01*
X38636Y-24842D01*
X38714Y-24652D01*
X38714Y-24589D01*
X38800Y-24674D01*
X38800Y-25621D01*
X38663Y-25757D01*
X38585Y-25947D01*
X38584Y-26151D01*
X38663Y-26341D01*
X38807Y-26486D01*
X38997Y-26564D01*
X39201Y-26565D01*
X39391Y-26486D01*
X39536Y-26342D01*
X39614Y-26152D01*
X39615Y-25948D01*
X39536Y-25758D01*
X39400Y-25621D01*
X39400Y-24550D01*
X39377Y-24435D01*
X39312Y-24337D01*
X39312Y-24337D01*
X38662Y-23687D01*
X38564Y-23622D01*
X38450Y-23600D01*
X37374Y-23600D01*
X37300Y-23525D01*
X37300Y-21224D01*
X38124Y-20400D01*
X41800Y-20400D01*
X41800Y-20399D01*
X41914Y-20377D01*
X41914Y-20377D01*
X42012Y-20312D01*
X42659Y-19664D01*
X42851Y-19665D01*
X42889Y-19649D01*
M02*
